<?xml version="1.0" standalone="no"?>
<!DOCTYPE svg PUBLIC "-//W3C//DTD SVG 20010904//EN"
 "http://www.w3.org/TR/2001/REC-SVG-20010904/DTD/svg10.dtd">
<svg version="1.0" xmlns="http://www.w3.org/2000/svg"
 width="180.000000pt" height="166.000000pt" viewBox="0 0 180.000000 166.000000"
 preserveAspectRatio="xMidYMid meet">

<g transform="translate(0.000000,166.000000) scale(0.100000,-0.100000)"
fill="#000000" stroke="none">
<path d="M595 1414 c-34 -17 -74 -58 -160 -161 -96 -115 -120 -152 -175 -279
-29 -65 -56 -123 -61 -129 -4 -5 -19 -53 -34 -105 -28 -97 -29 -176 -5 -205
21 -25 85 -28 133 -7 108 48 280 188 358 292 33 44 42 37 24 -17 -18 -53 -81
-356 -101 -488 -16 -106 -21 -255 -10 -274 11 -18 34 -13 41 9 3 10 -1 30 -10
43 -22 34 -5 214 40 432 49 235 82 347 127 420 30 50 19 95 -25 95 -24 0 -105
-40 -177 -88 -30 -19 -71 -46 -90 -59 -40 -26 -120 -100 -120 -111 1 -59 92
-10 303 166 86 71 102 76 93 31 -10 -53 -227 -284 -337 -360 -90 -61 -157 -88
-192 -78 -45 13 -52 24 -50 87 2 94 132 416 211 520 95 128 228 262 259 262 8
0 20 -13 26 -30 16 -42 41 -40 32 3 -11 50 -44 60 -100 31z m17 -482 c-6 -2
-28 -17 -49 -33 -79 -61 -156 -108 -166 -102 -6 4 1 15 16 27 15 12 50 40 79
64 28 23 59 42 67 42 9 0 25 7 36 16 15 11 21 12 24 2 2 -6 -1 -14 -7 -16z"/>
<path d="M1538 1032 c-3 -21 -15 -58 -28 -82 -49 -101 -110 -243 -105 -248 9
-10 47 33 71 81 39 76 128 187 137 171 4 -7 2 -63 -4 -124 -7 -60 -9 -113 -6
-117 10 -9 47 27 47 47 0 9 -4 20 -9 25 -5 6 -6 58 -3 123 8 126 2 136 -45 76
-15 -20 -35 -46 -45 -57 -23 -31 -31 -16 -12 23 20 39 31 120 17 120 -6 0 -13
-17 -15 -38z"/>
<path d="M925 1040 c-3 -5 -3 -15 0 -21 4 -6 -2 -13 -12 -15 -12 -3 -24 -21
-32 -49 -7 -24 -30 -91 -52 -150 -43 -119 -41 -145 9 -145 51 0 103 40 141
110 l36 65 3 -83 c2 -60 6 -82 15 -79 8 2 14 41 19 110 5 83 11 115 27 141 22
36 27 56 12 56 -11 0 -43 -48 -121 -184 -31 -54 -98 -116 -125 -116 -23 0 -24
29 -4 87 11 32 26 77 34 100 7 23 23 51 35 63 23 23 50 79 50 105 0 17 -25 21
-35 5z"/>
<path d="M1301 1037 c-76 -38 -220 -312 -183 -349 21 -21 72 22 125 105 l52
82 3 -70 c5 -149 27 -158 28 -11 0 70 6 123 18 164 26 85 14 108 -43 79z m29
-39 c0 -22 -31 -79 -117 -210 -43 -67 -73 -87 -73 -48 0 20 74 180 88 190 4 3
22 24 41 48 36 46 61 54 61 20z"/>
</g>
</svg>
